<svg width="152.57007198380487" height="148.7609375" viewBox="0 0 270 263.2590560045322" class="css-1j8o68f" xmlns="http://www.w3.org/2000/svg">
  <defs id="SvgjsDefs1112"></defs>
  <g id="SvgjsG1113" featurekey="rootContainer" transform="matrix(2.5809711372993354,0,0,2.5809711372993354,0.030434266996216174,0)" fill="#543d3d">
    <path xmlns="http://www.w3.org/2000/svg" d="M50.8 102h5.8l1.8-.2 1.7-.3h1.7l1.9-.3 1.8-.4.9-.2.9-.3 1.7-.6 2-.8a54 54 0 0 0 15.3-9.4l1.4-1.2.7-.5.6-.4 1-.5.8-.5 1.5-1.2 1.5-1.5.8-1 .9-1.1a50.9 50.9 0 0 0 3.9-5.8 34.8 34.8 0 0 0 1.6-3.1l.2-.4.2-.4.3-.8.3-.9.2-.4v-.4l.4-1.2.2-.6v-.3h.1v-.2l.7-2.5c.2-.9.4-1.7.5-2.6a25.4 25.4 0 0 0 .2-2.6v-3.1c0-.3 0-1 .1-1.5v-2.1a21.3 21.3 0 0 0 .2-2.6v-2.6c0-.9-.1-1.1-.1-1.6l-.2-1.5c-.1-1-.4-2-.5-3s-.2-1-.3-1.4l-.3-1.4-.3-1.4v-1.7l-.4-1.4-.2-.7-.2-.7-.4-1.4-.5-1.4-.4-1-.5-1-1-2.1a40.7 40.7 0 0 1-1.8-4.1 3.6 3.6 0 0 0-.8-1.2l-.7-.6-.2-.3-.3-.5a25.7 25.7 0 0 0-1.6-2.3l-.8-1.1-.9-1.1-.4-.5-.2-.3-.2-.2h-.1l-.9-1-.5-.5-.5-.5-.9-1.1-1.1-1a47.9 47.9 0 0 0-3.8-3l-.1-.5-1.3-.9A29 29 0 0 0 72 .4h-3.1a.8.8 0 0 0-.6 1.2A3.9 3.9 0 0 0 69.9 3l-.6.3-.4-.2a.9.9 0 0 0 0-.3c-.1-.5-.2-.9-1.3-1.3L65.3.7l-.6-.2h-.6L62.8 0l-1.3 1.2A48.5 48.5 0 0 0 39 2.4 31.1 31.1 0 0 0 31.4 4h-.5l-.5.2-1 .4-1 .5-.9.6-1.8 1.5-.8.6-.7.7c-1 .9-1.9 1.9-2.8 2.8L20 12.8l-1.4 1.5-.5.5-.5.5-1.1 1a55.1 55.1 0 0 0-7 7l.2-.5.6-1.1.6-1.1.6-1.1.6-1.2.6-1.2 1.2-2.4.4-.8.3-.6a1 1 0 0 0 0-.8 3.7 3.7 0 0 1-.2-1.2 17.1 17.1 0 0 0-2.1 1.1l-1.5 1.1-.8.6-.7.7-.8 1-.5 1-.5 1-.2.5-.3.5-.3.6-.4.8-.4.8-.7 1.7-.5 1.3-.5 1.3v.7l-.2.6-.3 1.3v.2h-.4v.3l-.2.7-.3 1.4-.2.7-.2.7-.4 1.7-.4 1.9-.2.9v2.8l-.6 1.9a38.3 38.3 0 0 0-.1 4.1 52.7 52.7 0 0 0-.7 8.7 5.2 5.2 0 0 0 0 .7c.5 3 .8 6 1.5 9l.4 1.8.5 1.8a18.3 18.3 0 0 0 .6 1.7l.4.8.4.8.9 1.7.5.8.5.8.5.8.5.8L7.8 77c1.4 2 2.9 4 4.5 5.9a35.6 35.6 0 0 0 2.6 2.7l.7.6.3.3.4.3 1.5 1.1 1 1a34 34 0 0 0 8.2 6.2l1.4.7 1.5.7.7.3.8.3 1.5.6.9.4.8.4.8.4 1 .4 1.9.7 1.9.6 1.6.4 1.6.4 1.6.3h5.7z">
    </path>
  </g>
  <g id="SvgjsG1114" featurekey="symbolFeature-0" transform="matrix(0.925925909573486,0,0,0.925925909573486,88.796296582464,30.27777662493076)" fill="#fbf7e1">
    <g xmlns="http://www.w3.org/2000/svg">
      <path fill="#fbf7e1" d="M26.8,38.3c-1.2,1.1-1,3.1,0.5,3.9c3.8,2.1,11.3,5.2,22.9,5.2c11.4,0,18.7-2.9,22.5-5.1   c1.4-0.8,1.7-2.8,0.5-3.9c-3.6-3.4-10.4-7.4-23.3-7.4C37.3,31.1,30.4,34.9,26.8,38.3z"></path>
      <path fill="#fbf7e1" d="M43.4,22.4c0,0.2,0.1,0.3,0.1,0.5c0,0,0,0.1,0,0.1c0,0.3,0,0.7,0,1c0,0,0,0.1,0,0.1c0,0.2-0.1,0.3-0.1,0.5   c-0.5,1.5-2.1,3.1-5.1,5.3c0,0,7.7-2.9,9.2-6.6c0,0,0-0.1,0-0.1c0.1-0.1,0.1-0.3,0.1-0.4c0,0,0-0.1,0-0.1c0.1-0.6,0.1-1.2-0.2-1.9   c-2.2-4.8-8-8-1.9-15.7c0,0-10.7,4.5-6.1,10.9C41.4,18.8,42.9,20.7,43.4,22.4z"></path>
      <path fill="#fbf7e1" d="M55.7,22.4c0,0.7-0.2,1.3-0.7,2.1c-0.6,0.9-1.7,1.9-3.4,3.1c0,0,3.1-1.2,5.3-2.9c0,0,0,0,0,0   c0.2-0.1,0.3-0.3,0.5-0.4c0,0,0,0,0.1,0c0.5-0.5,0.9-1,1.2-1.5c0,0,0,0,0,0h0c0.4-0.7,0.5-1.5,0.1-2.2c-1.7-3.7-6.2-6.2-1.5-12.2   c0,0-8.4,3.5-4.8,8.5C54.4,19.3,55.7,20.8,55.7,22.4z"></path>
      <path fill="#fbf7e1" d="M88.2,59.4c3.7-4.8,4.6-9.9,3.5-13.3c-0.8-2.5-2.6-4.1-5-4.4c-3-0.4-5.2,0.4-6.7,1.3   c0.4-2.5,0.6-4.4,0.6-5.4c0-0.1,0-0.3,0-0.4c0-0.2,0-0.4,0-0.4l0,0c0,0,0,0,0,0c0-6.6-8.6-12.1-20.9-14c-0.3,0.7-0.8,1.4-1.5,2   c11.6,1.6,20.2,6.5,20.3,12.1c0,0.1,0,0.3,0,0.7c-0.2,1.4-0.9,2.7-2,3.9c0,0-0.1,0.1-0.1,0.1c-0.1,0.1-0.1,0.1-0.2,0.2   c0,0-0.1,0.1-0.1,0.1c0,0,0,0,0,0c-2.7,2.5-10.8,7.1-25.8,7.1C33.9,49.2,26,43.8,23.8,42c0,0,0,0,0,0c-1.4-1.4-2.3-2.9-2.5-4.4   c0-0.1,0-0.3,0-0.4c0,0,0-0.1,0-0.1c0-0.1,0-0.2,0-0.2c0-5.6,8.9-10.6,20.7-12.1c0.2-0.4,0.4-0.9,0.4-1.3c0-0.3,0-0.6-0.1-0.9   c-13.4,1.6-23.1,7.3-23.1,14.3c0,0,0,0,0,0l0,0c0,0,0,0.2,0,0.4c0,0.1,0,0.2,0,0.4c0.1,2.1,0.7,7.9,2.7,14.5   c-0.8,0.4-1.5,0.8-2.3,1.2C11.3,58,6.7,64.2,6.7,70.8c0,6.6,4.6,12.8,12.9,17.4c8.1,4.5,18.9,6.9,30.3,6.9s22.2-2.5,30.3-6.9   c8.3-4.6,12.9-10.8,12.9-17.4C93.1,66.8,91.4,62.9,88.2,59.4z M79.4,46.3c0.5-0.6,2.6-2.9,7.1-2.4c2,0.2,2.8,1.7,3.2,2.9   c0.8,2.7,0.1,6.9-3,11.1c-0.4,0.5-0.9,1.1-1.4,1.6c-0.5,0.5-1,1-1.6,1.6c-1.1,1-2.2,1.8-3.2,2.5c-0.6,0.4-1.2,0.8-1.8,1.2   c-3.5,2-6.5,2.9-8.6,3.3c1-1.2,1.9-2.6,2.8-4c0.8-0.2,2.4-0.7,4.2-1.5c0.6-0.3,1.3-0.6,2-1c1.5-0.9,3-2,4.3-3.5   c0.5-0.5,0.9-1.1,1.3-1.6c1-1.5,1.8-3,2.2-5c0.1-0.3,0.1-0.6,0.1-0.8l0-0.3c0-0.1,0-0.1,0-0.2c-0.2-0.9-0.9-2.2-2.5-2.7   c-1.6-0.5-3.5,0.2-5.8,1.9C79,48.3,79.2,47.3,79.4,46.3z M50,79.5c12.4,0,16.6-7.7,16.6-7.7s0,0,0,0c0.5-0.4,1-0.9,1.5-1.4   c1.4,0,5.9-0.4,11.3-3.5c0.4,0.9,0.5,1.9,0.5,2.8c0,8.2-13.5,15-30.2,15s-30.2-6.7-30.2-15c0-3.1,2-6.2,5.8-8.7l0.1,0.3   c2.2,4.7,4.9,8.3,8.1,11c0,0-0.1-0.1-0.1-0.1S38.2,79.5,50,79.5z M74.4,61.3c0.1-0.2,0.2-0.5,0.3-0.7l1-2.3   c0.2-0.4,0.3-0.7,0.5-1.1c0.4-1,0.7-2,1.1-3c1.6,0.8,3,1.6,4.4,2.5c-1.3,1.3-2.7,2.3-4.1,3.1l-2.1,1.1   C75.1,61.1,74.8,61.2,74.4,61.3z M83.9,49.4c0.5,0.1,0.8,0.5,0.9,0.9c0.1,0.2,0.1,0.4,0.1,0.7c-0.4,1.6-1.1,3-1.9,4.2   c-0.9-0.6-1.8-1.1-2.8-1.7c-0.6-0.3-1.2-0.7-1.9-1C81.7,49.2,83.3,49.2,83.9,49.4z M49.9,51.7c12.5,0,23-3.4,27.9-8.4   c-0.4,2.4-1,5.2-1.8,8.2c-0.2,0.7-0.4,1.3-0.6,2c-0.3,1-0.7,2.1-1.1,3.1c-0.1,0.2-0.2,0.4-0.3,0.6c-0.3,0.7-0.6,1.4-0.9,2   c-5.1,11-12.9,16.6-23.2,16.6s-18.1-5.6-23.2-16.6c-0.3-0.7-0.6-1.3-0.9-2c-0.1-0.2-0.2-0.4-0.3-0.6c-0.4-1-0.8-2.1-1.1-3.1   c-0.2-0.7-0.4-1.4-0.6-2c-0.9-3-1.4-5.8-1.8-8.2C26.9,48.2,37.4,51.7,49.9,51.7z M49.9,93C27.2,93,8.8,83,8.8,70.8   c0-6.5,5.3-12.4,13.7-16.5c0.3,1,0.7,2,1.1,3c0.1,0.4,0.6,1.3,0.8,1.7l0.5,1.1c-4.1,2.8-6.4,6.2-6.4,9.7c0,8.8,14,16,31.2,16   c17.2,0,31.2-7.2,31.2-16c0-1.1-0.2-2.3-0.7-3.4l1.1-0.7c1.3-0.8,2.6-1.8,3.9-3c0.6-0.5,1.1-1.1,1.6-1.6c2.7,2.9,4.2,6.2,4.2,9.7   C91,83,72.6,93,49.9,93z"></path>
      <path fill="#fbf7e1" d="M53.7,24.4c0.6-0.7,1-1.3,1-1.8c0-0.1,0-0.2,0-0.3c-1.5-0.1-3.1-0.2-4.7-0.2c-0.4,0-0.8,0-1.2,0   c0,0.5-0.1,1-0.3,1.6c-0.1,0.2-0.2,0.4-0.3,0.6c0.6,0,1.2,0,1.8,0C51.2,24.3,52.4,24.3,53.7,24.4z"></path>
    </g>
  </g>
  <g id="SvgjsG1115" featurekey="nameFeature-0" transform="matrix(2.9272684169485963,0,0,2.9272684169485963,28.708242339152605,109.56559012413175)" fill="#fbf7e1">
    <path d="M14.64 21.12 c-0.16 0.16 -0.2 0.32 -0.24 0.48 c-0.16 0.8 -0.44 1.6 -0.72 2.36 c-0.24 0.64 -0.4 1.32 -0.6 1.96 c-0.16 0.44 -0.32 0.92 -0.52 1.4 c-0.12 0.32 -0.28 0.64 -0.48 0.92 c-0.2 0.24 -0.32 0.48 -0.52 0.72 c-0.08 0.12 -0.2 0.24 -0.28 0.36 c-0.08 0.08 -0.2 0.12 -0.32 0.12 c-0.24 0 -0.44 -0.04 -0.68 0.04 c-0.04 0.04 -0.12 0 -0.2 0 c-0.12 -0.04 -0.28 -0.04 -0.44 0 c-0.24 0.08 -0.44 0.04 -0.68 0.04 c-0.08 0 -0.12 -0.04 -0.2 -0.04 c-0.36 -0.2 -0.48 -0.28 -0.48 -0.72 l0 -0.08 c0.12 -0.4 0 -0.76 -0.16 -1.12 c-0.08 -0.12 -0.12 -0.24 -0.2 -0.36 c-0.24 -0.64 -0.52 -1.24 -0.84 -1.8 c-0.52 -0.96 -0.88 -1.92 -1.16 -2.96 c-0.08 -0.36 -0.2 -0.76 -0.28 -1.12 c-0.12 -0.44 -0.28 -0.88 -0.48 -1.32 c-0.04 -0.04 -0.08 -0.04 -0.12 -0.04 c-0.04 -0.04 -0.08 0 -0.08 0.08 l0 0.32 c0 0.76 0 1.52 0.08 2.28 c0.04 0.64 0.08 1.24 0.12 1.84 c0.08 0.72 0.04 1.44 0.16 2.16 l0 0.12 c0.04 0.76 0.04 1.52 0.04 2.28 c0.04 0.24 0.04 0.44 0.04 0.68 c0.04 0.2 0.04 0.4 0.04 0.6 l0 7.76 c0 0.2 0 0.36 -0.04 0.56 c0 0.08 -0.08 0.16 -0.16 0.2 c-0.64 0.12 -1.28 0.16 -1.92 0.16 c-0.08 0 -0.12 0 -0.16 -0.04 c-0.64 -0.16 -0.64 -0.04 -0.72 -0.76 l0 -0.4 c-0.04 -0.32 -0.04 -0.68 -0.08 -1 c-0.04 -0.48 -0.08 -0.96 -0.08 -1.4 l0 -1.36 c-0.04 -0.72 0 -1.44 -0.04 -2.16 l0 -1.48 c-0.04 -0.2 -0.04 -0.36 -0.04 -0.56 l0 -2.48 l0 -0.4 c-0.08 -0.72 -0.04 -1.44 -0.04 -2.16 l0 -10.2 c-0.04 -0.64 0.04 -1.28 0.12 -1.92 c0.04 -0.12 0.16 -0.12 0.24 -0.16 c0.44 -0.32 0.96 -0.44 1.48 -0.6 c0.24 -0.04 0.44 -0.04 0.68 -0.04 c0.08 0 0.16 0.08 0.2 0.16 c0.16 0.24 0.24 0.52 0.36 0.8 c0.16 0.56 0.4 1.08 0.6 1.64 c0.36 0.56 0.6 1.2 0.88 1.8 c0.24 0.56 0.52 1.08 0.84 1.6 c0.24 0.4 0.36 0.84 0.6 1.2 c0.08 0.12 0.12 0.24 0.16 0.4 c0.16 0.48 0.28 0.96 0.44 1.48 c0.08 0.12 0.08 0.24 0.12 0.36 c0.08 0.88 0.4 1.68 0.84 2.4 c0.16 0.32 0.32 0.64 0.52 0.96 c0 0.04 0.08 0.08 0.08 0.04 c0.04 0 0.08 -0.04 0.08 -0.08 c0.12 -0.36 0.24 -0.72 0.32 -1.08 c0.08 -0.32 0.16 -0.64 0.24 -0.92 c0.16 -0.52 0.32 -1.04 0.44 -1.56 c0.12 -0.76 0.32 -1.48 0.6 -2.2 c0.28 -0.68 0.4 -1.4 0.48 -2.12 c0.04 -0.28 0.08 -0.56 0.16 -0.84 c0.16 -0.64 0.28 -1.28 0.52 -1.88 c0.24 -0.56 0.32 -1.16 0.4 -1.76 c0.04 -0.12 0.04 -0.24 0.08 -0.36 c0.04 -0.2 0.16 -0.32 0.36 -0.28 c0.64 0 1.32 0.04 1.96 0.08 c0.16 0 0.36 0 0.52 0.04 c0.16 0 0.32 0.04 0.48 0.08 c0.12 0.04 0.24 0.12 0.28 0.24 c0.12 0.28 0.16 0.56 0.16 0.88 c0.04 0.28 0.04 0.56 0.08 0.88 c0.12 0.84 0.16 1.68 0.16 2.52 l0 3.2 c0.08 5.88 0.04 11.76 0.04 17.68 l0 0.92 c0 0.12 0 0.24 -0.04 0.36 c0 0.04 -0.08 0.12 -0.12 0.12 c-0.68 0.16 -1.32 0.24 -2 0.2 l-0.08 0 c-0.68 -0.16 -0.76 -0.12 -0.76 -0.84 l0 -2.84 l0 -12.28 c0 -0.56 0 -1.12 -0.04 -1.76 z M35.966 40.36 c-0.2 0.16 -0.44 0.2 -0.64 0.28 c-0.44 0.12 -0.92 0.2 -1.4 0.28 l-0.28 0 c-0.44 -0.04 -0.6 0 -0.72 -0.64 c-0.04 -0.2 -0.08 -0.4 -0.12 -0.64 c0 -0.28 -0.08 -0.56 -0.16 -0.84 c-0.24 -0.56 -0.36 -1.16 -0.52 -1.72 c-0.04 -0.16 -0.04 -0.28 -0.04 -0.44 c-0.04 -0.32 -0.08 -0.6 -0.12 -0.92 c-0.08 -0.48 -0.16 -0.44 -0.48 -0.2 c-0.24 0.16 -0.44 0.4 -0.6 0.6 s-0.32 0.36 -0.56 0.44 c-0.08 0.04 -0.12 0.08 -0.2 0.12 c-0.36 0.28 -0.76 0.36 -1.2 0.32 c-0.36 -0.04 -0.68 -0.04 -1 -0.04 l-0.24 0 c-0.48 -0.12 -0.92 -0.2 -1.4 -0.16 c-0.08 0 -0.16 -0.04 -0.24 -0.04 c-0.36 -0.16 -0.72 -0.24 -1.08 -0.32 c-0.12 -0.04 -0.28 -0.08 -0.32 -0.16 c-0.2 -0.24 -0.48 -0.36 -0.76 -0.44 c-0.28 -0.12 -0.52 -0.28 -0.72 -0.56 c-0.04 -0.08 -0.12 -0.2 -0.2 -0.28 c-0.36 -0.2 -0.48 -0.52 -0.52 -0.88 c0 -0.24 -0.08 -0.44 -0.16 -0.64 c-0.16 -0.4 -0.32 -0.84 -0.44 -1.28 c-0.28 -0.8 -0.32 -1.6 -0.32 -2.44 c0.04 -1.68 0.08 -3.36 0.08 -5.04 l0 -0.64 c0 -0.88 0.04 -1.72 0.16 -2.6 c0.04 -0.56 0.12 -1.12 0 -1.72 c-0.04 -0.16 -0.04 -0.32 0 -0.48 c0.04 -0.4 0.08 -0.8 0.08 -1.16 l0 -0.28 c0.2 -0.68 0.16 -1.36 0.4 -2 c0.08 -0.28 0.12 -0.56 0.16 -0.84 c0.08 -0.52 0.2 -1 0.32 -1.48 c0.08 -0.24 0.12 -0.52 0.16 -0.8 c0.04 -0.36 0.12 -0.68 0.4 -0.96 c0.08 -0.08 0.16 -0.2 0.2 -0.32 c0.08 -0.24 0.28 -0.44 0.48 -0.56 c0.36 -0.24 0.72 -0.52 1.08 -0.76 c0.12 -0.08 0.24 -0.12 0.4 -0.12 c0.24 0 0.48 -0.04 0.72 -0.12 l0.04 0 c0.84 -0.04 1.68 -0.2 2.52 -0.16 c0.36 0 0.68 0.08 1 0.12 c0.08 0 0.16 0.04 0.2 0.08 c0.2 0.08 0.4 0.2 0.6 0.28 c0.4 0.2 0.76 0.4 1 0.8 c0.08 0.16 0.24 0.28 0.4 0.4 c0.12 0.12 0.24 0.24 0.28 0.4 c0.04 0.32 0.2 0.6 0.32 0.88 c0.2 0.32 0.28 0.64 0.32 1.04 l0 0.2 c0.16 0.68 0.12 1.4 0.08 2.08 c-0.04 0.44 0 0.88 0 1.28 c-0.04 0.24 -0.04 0.44 -0.08 0.68 l0 0.48 c0 0.96 -0.12 1.92 -0.32 2.88 c0 0.08 -0.04 0.16 -0.08 0.28 c-0.08 0.24 -0.24 0.36 -0.52 0.4 c-0.48 0.08 -0.96 0.12 -1.44 0 c-0.16 -0.04 -0.36 -0.04 -0.56 -0.08 c-0.12 0 -0.28 -0.08 -0.4 -0.12 c-0.08 -0.04 -0.16 -0.12 -0.16 -0.24 c0 -0.2 0 -0.36 0.04 -0.56 c0.08 -0.72 0.2 -1.44 0.28 -2.16 c0.08 -1.16 0.12 -2.32 0.12 -3.52 c0 -0.2 0 -0.44 -0.04 -0.64 c-0.04 -0.52 -0.28 -0.96 -0.56 -1.4 c-0.2 -0.28 -0.48 -0.44 -0.88 -0.44 c-0.52 0 -1.04 0.04 -1.56 0.12 c-0.16 0.04 -0.32 0.12 -0.44 0.24 c-0.32 0.36 -0.56 0.72 -0.64 1.2 c-0.08 0.4 -0.2 0.8 -0.2 1.2 c-0.04 0.12 -0.04 0.24 -0.08 0.36 c-0.2 0.68 -0.2 1.44 -0.4 2.12 c0 0.72 -0.12 1.44 -0.12 2.16 c0 0.84 0 1.68 -0.16 2.52 c-0.04 0.28 -0.12 0.56 -0.04 0.84 c0.04 0.12 0 0.2 0 0.32 c0.04 0.28 0 0.6 -0.04 0.92 s0.04 0.6 0.04 0.92 c0.04 0.16 0 0.28 0 0.44 c-0.04 0.12 -0.04 0.24 -0.04 0.36 c-0.04 1.12 -0.04 2.2 -0.04 3.32 c-0.04 0.64 0.08 1.24 0.32 1.84 c0.12 0.32 0.24 0.68 0.36 1 c0.12 0.24 0.24 0.4 0.48 0.52 c0.28 0.16 0.56 0.28 0.88 0.32 c0.2 0.04 0.36 0.08 0.56 0.08 c0.48 0.04 0.92 0.16 1.36 0.08 c0.2 -0.08 0.32 -0.24 0.44 -0.4 c0.12 -0.12 0.2 -0.32 0.2 -0.52 c0.08 -1 0.16 -2.04 0.12 -3.08 c0 -0.4 -0.08 -0.8 -0.16 -1.2 c-0.04 -0.16 -0.16 -0.28 -0.32 -0.28 c-0.56 -0.08 -1.16 -0.28 -1.76 -0.28 c-0.28 0.04 -0.52 -0.12 -0.76 -0.2 c-0.08 -0.04 -0.16 -0.12 -0.2 -0.2 c-0.2 -0.64 -0.24 -1.32 -0.04 -2 c0.04 -0.24 0.2 -0.4 0.48 -0.48 c0.04 0 0.12 -0.08 0.2 -0.04 c0.28 0 0.52 -0.12 0.76 -0.2 c0.28 -0.04 0.52 0.12 0.76 0.16 l0.6 0 c0.24 0 0.48 0 0.72 0.08 l0.2 0 c0.44 -0.12 0.84 0 1.24 0.16 c0.12 0.04 0.2 0.04 0.32 0.04 c0.16 0.04 0.32 0.04 0.48 0.08 c0.12 0.04 0.24 0.04 0.36 0 c0.2 -0.12 0.44 -0.12 0.72 -0.16 c0.16 0.12 0.36 0.24 0.52 0.36 c0.12 0.28 0.2 0.52 0.32 0.8 c0.08 0.24 0.16 0.48 0.2 0.76 c0 0.08 0 0.16 0.04 0.2 c0.24 0.56 0.16 1.12 0.08 1.64 c-0.12 0.64 -0.12 1.24 -0.04 1.88 c0.08 0.68 0.2 1.36 0.4 2.04 c0.28 0.96 0.44 1.96 0.64 2.96 c0.04 0.16 0.04 0.28 0.04 0.44 c0.04 0.24 0.08 0.48 0.24 0.68 c0.16 0.24 0.24 0.52 0.28 0.8 c0.04 0.32 0.12 0.6 0.2 0.92 c0.08 0.24 0.12 0.52 0.12 0.76 l0 0.92 z M43.492000000000004 26.4 c0.04 -2.96 0.04 -5.92 0.04 -8.88 c0 -0.52 0.04 -1.08 0.08 -1.6 c0 -0.28 -0.04 -0.56 -0.04 -0.8 c0 -0.04 -0.04 -0.08 -0.08 -0.08 c-0.16 -0.04 -0.32 -0.04 -0.44 -0.04 l-4.44 0 l-0.72 0 c-0.12 0 -0.24 -0.04 -0.32 -0.08 c-0.08 0 -0.16 -0.08 -0.2 -0.16 c0 -0.16 -0.04 -0.28 -0.08 -0.44 c-0.24 -0.68 -0.24 -1.36 -0.16 -2.08 c0.04 -0.16 0.12 -0.32 0.16 -0.48 c0.04 -0.08 0.12 -0.16 0.2 -0.16 c0.08 -0.04 0.16 -0.04 0.24 -0.04 l0.52 0 l12.6 0 l1 0 c0.12 0 0.2 0 0.32 0.04 c0.12 0 0.2 0.04 0.24 0.16 c0.2 0.96 0.28 1.92 0.04 2.84 c-0.08 0.2 -0.2 0.32 -0.36 0.36 c-0.24 0 -0.44 0.04 -0.64 0.04 l-3.88 0 l-0.6 0 c-0.08 0.04 -0.16 0.12 -0.16 0.2 l0 0.24 c0.08 0.4 0.04 0.8 0.04 1.16 l0 19.08 c0 0.4 -0.04 0.8 -0.04 1.2 l0 1.08 l0 0.68 c-0.04 0.12 -0.12 0.24 -0.24 0.28 c-0.6 0.08 -1.2 0.16 -1.84 0.16 c-0.28 -0.04 -0.56 -0.08 -0.8 -0.16 c-0.16 -0.04 -0.24 -0.16 -0.24 -0.32 c-0.04 -0.44 -0.08 -0.88 -0.08 -1.36 c-0.08 -1.48 -0.08 -2.96 -0.08 -4.44 l0 -2.68 l0 -2 l0 -1.72 l-0.04 0 z M59.89800000000001 28.439999999999998 c-0.12 0.12 -0.2 0.32 -0.28 0.48 c-0.16 0.16 -0.32 0.28 -0.56 0.28 s-0.44 0 -0.68 0.04 c-0.04 0.08 -0.08 0.16 -0.08 0.24 l0 0.84 l0 9.04 c0 0.32 -0.04 0.6 -0.04 0.92 c0 0.08 -0.12 0.2 -0.2 0.2 c-0.88 0.16 -1.76 0.24 -2.56 0.2 c-0.24 -0.04 -0.48 -0.12 -0.68 -0.2 c-0.24 -0.28 -0.28 -0.6 -0.28 -0.88 c0 -0.6 -0.04 -1.24 -0.04 -1.84 l0 -9.64 l0 -10.12 c0.04 -0.92 0.08 -1.88 0.08 -2.8 c0.04 -0.96 0.08 -1.88 0.12 -2.84 c0 -0.64 0.08 -1.28 0.16 -1.88 c0 -0.24 0.12 -0.36 0.36 -0.4 c0.2 -0.04 0.36 -0.12 0.56 -0.16 c0.64 -0.2 1.32 -0.12 1.96 0.08 c0.08 0.04 0.16 0.12 0.2 0.24 c0 0.08 0.04 0.16 0.04 0.24 c0.08 0.84 0.16 1.64 0.16 2.48 c0 0.68 0.04 1.36 0.12 2.08 c0.04 0.24 0.04 0.52 0.04 0.8 l0 8.08 c0 0.24 0 0.48 0.04 0.72 c0 0.04 0.04 0.08 0.08 0.12 c0.04 0 0.08 -0.04 0.08 -0.04 c0.08 -0.08 0.16 -0.16 0.2 -0.28 c0.68 -1 1.32 -2.04 1.84 -3.12 c0.24 -0.48 0.44 -0.96 0.6 -1.48 c0.2 -0.44 0.4 -0.88 0.52 -1.4 c0.04 -0.12 0.16 -0.28 0.24 -0.4 c0.48 -0.64 0.84 -1.32 1.4 -1.88 c0.16 -0.2 0.28 -0.48 0.4 -0.72 c0.08 -0.08 0.08 -0.2 0.12 -0.32 c0 -0.12 0 -0.28 0.04 -0.4 c0.12 -0.2 0.24 -0.36 0.4 -0.52 c0.28 -0.24 0.52 -0.52 0.6 -0.88 c0 -0.04 0.04 -0.08 0.08 -0.16 c0.08 -0.12 0.16 -0.2 0.32 -0.2 c0.28 0 0.56 -0.08 0.8 -0.2 c0.08 -0.04 0.16 -0.08 0.2 -0.08 c0.2 0 0.24 0.16 0.36 0.24 c0.2 0.16 0.4 0.32 0.64 0.36 s0.44 0.2 0.64 0.32 c0.16 0.4 0.28 0.8 0.44 1.16 c0.16 0.28 0.08 0.48 -0.08 0.68 c-0.08 0.12 -0.2 0.2 -0.28 0.32 s-0.2 0.2 -0.28 0.32 c-0.12 0.12 -0.2 0.24 -0.24 0.44 c-0.08 0.36 -0.24 0.72 -0.44 1.04 c-0.12 0.16 -0.2 0.32 -0.28 0.52 c-0.12 0.32 -0.32 0.56 -0.6 0.76 c-0.48 0.32 -0.8 0.76 -1.08 1.24 c-0.08 0.24 -0.2 0.44 -0.28 0.68 c-0.4 0.76 -0.76 1.56 -1.12 2.32 c-0.24 0.56 -0.6 1.08 -0.92 1.56 c-0.12 0.16 -0.12 0.32 -0.04 0.48 c0.28 0.72 0.68 1.4 1.08 2.04 c0.64 0.96 1.12 1.96 1.64 3 c0.32 0.64 0.68 1.24 1 1.88 c0.24 0.44 0.48 0.88 0.68 1.32 c0.4 0.84 0.92 1.6 1.6 2.24 c0.2 0.2 0.4 0.44 0.48 0.76 c0.08 0.16 0.2 0.32 0.36 0.44 c0.08 0.08 0.16 0.2 0.2 0.32 c0.16 0.4 0.32 0.72 0.56 1.04 c0.16 0.24 0.2 0.52 0.16 0.8 c0 0.08 -0.04 0.16 -0.08 0.2 c-0.32 0.24 -0.4 0.6 -0.52 0.92 c-0.52 0.24 -1 0.44 -1.52 0.64 c-0.36 0.12 -0.72 0.12 -1.04 -0.08 c-0.24 -0.2 -0.48 -0.4 -0.6 -0.68 c-0.12 -0.36 -0.28 -0.68 -0.48 -0.96 c-0.24 -0.52 -0.56 -0.96 -0.88 -1.4 c-0.68 -0.88 -1.2 -1.8 -1.72 -2.76 c-0.32 -0.68 -0.68 -1.32 -1.04 -1.96 c-0.36 -0.72 -0.72 -1.44 -1.12 -2.16 c-0.24 -0.48 -0.48 -1.04 -0.92 -1.44 c-0.16 -0.16 -0.28 -0.44 -0.4 -0.64 c-0.04 -0.08 -0.08 -0.12 -0.16 -0.2 l-0.08 0 z"></path>
  </g>
</svg>